<svg id="Layer_1" data-name="Layer 1" xmlns="http://www.w3.org/2000/svg" xmlns:xlink="http://www.w3.org/1999/xlink" viewBox="0 0 256 249.29"><defs><style>.cls-1{fill:url(#linear-gradient);}.cls-2{fill:#5f234e;}.cls-3{fill:url(#linear-gradient-2);}.cls-4{fill:#003313;}.cls-5{fill:url(#linear-gradient-3);}.cls-6{fill:url(#linear-gradient-4);}.cls-7{fill:url(#linear-gradient-5);}.cls-8{fill:url(#linear-gradient-6);}.cls-9{fill:#6d6e6b;}</style><linearGradient id="linear-gradient" x1="186.14" y1="80.11" x2="220.04" y2="89.83" gradientUnits="userSpaceOnUse"><stop offset="0" stop-color="#c16240"/><stop offset="0.49" stop-color="#a32200"/><stop offset="0.63" stop-color="#a52604"/><stop offset="0.76" stop-color="#aa300e"/><stop offset="0.88" stop-color="#b24320"/><stop offset="0.99" stop-color="#be5c39"/><stop offset="1" stop-color="#bf5e3b"/></linearGradient><linearGradient id="linear-gradient-2" x1="-260.56" y1="337.43" x2="-178.96" y2="363.95" gradientTransform="translate(355.35 -285.06) rotate(3.35)" gradientUnits="userSpaceOnUse"><stop offset="0" stop-color="#a60070"/><stop offset="0.01" stop-color="#b00070"/><stop offset="0.05" stop-color="#d00070"/><stop offset="0.08" stop-color="#e70070"/><stop offset="0.12" stop-color="#f50070"/><stop offset="0.14" stop-color="#fa0070"/><stop offset="0.17" stop-color="#fa0673"/><stop offset="0.2" stop-color="#fb177b"/><stop offset="0.24" stop-color="#fc3389"/><stop offset="0.28" stop-color="#fd5a9c"/><stop offset="0.32" stop-color="#ff8bb4"/><stop offset="0.33" stop-color="#ff91b8"/><stop offset="0.34" stop-color="#ff98bd"/><stop offset="0.37" stop-color="#ff9abe"/><stop offset="0.41" stop-color="#ff7bb2"/><stop offset="0.48" stop-color="#ff469e"/><stop offset="0.54" stop-color="#ff208f"/><stop offset="0.59" stop-color="#ff0986"/><stop offset="0.62" stop-color="#ff0083"/><stop offset="0.7" stop-color="#f50081"/><stop offset="0.82" stop-color="#db007b"/><stop offset="0.97" stop-color="#b00072"/><stop offset="1" stop-color="#a60070"/></linearGradient><linearGradient id="linear-gradient-3" x1="52.09" y1="115.78" x2="74.67" y2="115.78" gradientUnits="userSpaceOnUse"><stop offset="0" stop-color="#00351d"/><stop offset="1" stop-color="#00821d"/></linearGradient><linearGradient id="linear-gradient-4" x1="-268.63" y1="440.2" x2="-188.14" y2="486.67" gradientTransform="translate(355.35 -285.06) rotate(3.35)" gradientUnits="userSpaceOnUse"><stop offset="0" stop-color="#00351d"/><stop offset="0.51" stop-color="#009835"/><stop offset="0.71" stop-color="#009431"/><stop offset="0.91" stop-color="#008925"/><stop offset="1" stop-color="#00821d"/></linearGradient><linearGradient id="linear-gradient-5" x1="-230.35" y1="369.46" x2="-115.91" y2="393.68" gradientTransform="translate(355.35 -285.06) rotate(3.35)" gradientUnits="userSpaceOnUse"><stop offset="0.16" stop-color="#a32211"/><stop offset="0.22" stop-color="#af3410"/><stop offset="0.34" stop-color="#cd620f"/><stop offset="0.5" stop-color="#fdac0c"/><stop offset="0.51" stop-color="#ffae0c"/><stop offset="0.65" stop-color="#ffae0c"/><stop offset="0.69" stop-color="#fea40e"/><stop offset="0.76" stop-color="#fa8b12"/><stop offset="0.85" stop-color="#f5611a"/><stop offset="0.93" stop-color="#f03921"/></linearGradient><linearGradient id="linear-gradient-6" x1="51.7" y1="116.16" x2="168.87" y2="145.37" gradientUnits="userSpaceOnUse"><stop offset="0" stop-color="#005d2c"/><stop offset="0.02" stop-color="#096333"/><stop offset="0.07" stop-color="#237544"/><stop offset="0.12" stop-color="#4c9161"/><stop offset="0.18" stop-color="#85b788"/><stop offset="0.21" stop-color="#a6cd9f"/><stop offset="0.25" stop-color="#a6cd9f"/><stop offset="0.3" stop-color="#73bd79"/><stop offset="0.35" stop-color="#42ae53"/><stop offset="0.39" stop-color="#1ea339"/><stop offset="0.43" stop-color="#089c28"/><stop offset="0.46" stop-color="#009a22"/><stop offset="0.87" stop-color="#005d2c"/></linearGradient></defs><path class="cls-1" d="M221.44,76.81c.34-2.21.61-4.08.84-5.68a.5.5,0,0,0,0,.12c-1.07,5.67-6.34,2.53-8.45,1.13-11-7.31-27.92-14.6-24.55,5,3.14,18.27,25.88,26.25,25.6,30.33,1.08-3.09,4-14,6.43-29.87Z"/><path class="cls-2" d="M89.17,9.43c-.67,1.21.36,2.4,2.07,4,5-4.24.19-7.41-1.87-4.32Z"/><path class="cls-2" d="M84.24,45.13c-2-3.65-3.86-8-3.12-12.12a33.13,33.13,0,0,0-5.81,8.68C74.64,43.13,74.63,44.7,84.24,45.13Z"/><path class="cls-2" d="M71.71,61.88c-.47-3.3-3.57-5.07-4.65-2.9h0c-.51,1.12-.25,3.76,4.35,5.66A6.81,6.81,0,0,0,71.71,61.88Z"/><path class="cls-3" d="M152,68.82A33.33,33.33,0,0,0,142.83,61C127.08,51.3,100,45.33,88.72,45.24c-1.69,0-3.17-.05-4.48-.11-9.61-.43-9.6-2-8.93-3.44A33.13,33.13,0,0,1,81.12,33c6.82-7.33,15.7-9.88,22.52-11.79,9-2.53,24.07-11,11-18S93.51,2.46,92.06,4.45a38.65,38.65,0,0,0-2.9,5l.2-.34c2.07-3.09,6.91.08,1.88,4.32l-.26.22c-5.64,4.48-11.61,14.64-14.92,22.12C71.53,46,67.06,59,67.06,59h0c1.08-2.17,4.18-.4,4.65,2.9a6.81,6.81,0,0,1-.3,2.76,24.71,24.71,0,0,1-2.67,5.58c-4.83,7.9,2.47,14.59,9.17,15.93,5.82,1.17,39-1.74,51-3.15,1.81-.22,3.14-.4,3.81-.53C137.73,81.51,158.92,78.07,152,68.82Z"/><path class="cls-4" d="M52.11,114.58l0-.21C52.14,114.43,52.13,114.5,52.11,114.58Z"/><path class="cls-5" d="M54.18,124.91c4.14,3,11.09,2,20.49-.18l0-.06c-11-11.52-14.7-20.48-18.74-19.86-2.16.33-3.15,6-3.73,9.56C51.87,120.64,52.7,123.82,54.18,124.91Z"/><path class="cls-6" d="M57.16,147.08l-1-.3a78.63,78.63,0,0,0,9.93,15.28c22.09,27.09,66.15,22.39,76.38,18.86s2.22-10.83-3.84-14.5c-3.54-2.15-13.47-5.88-26.27-13.15C94.22,152.88,72.38,151.29,57.16,147.08Z"/><path class="cls-7" d="M205.64,47.45A183.72,183.72,0,0,0,158.72,54a55.87,55.87,0,0,0-15.84,6.9l0,.08A33.33,33.33,0,0,1,152,68.82c6.91,9.25-14.28,12.69-19.34,13.65-.67.13-2,.31-3.81.53h0a30.48,30.48,0,0,0,.07,6.46c.52,4.68-1.55,9.56-6.92,10.78s-29.69,7.55-29.88,13a15.61,15.61,0,0,0,2.22,7.16h0c3.07-.58,6.28-1.11,9.63-1.54,23.51-3,67.85-9,70.65,1.21h0c12.33-5.69,20-12.47,24.79-14.76,5.66-2.71,14.35,5.51,15.43,2.42.28-4.08-22.46-12.06-25.6-30.33-3.37-19.58,13.57-12.29,24.55-5,2.11,1.4,7.38,4.54,8.45-1.13a.5.5,0,0,1,0-.12c1.29-9.12,1.05-9.63,1.6-15.51C224.54,48.56,212.4,47.22,205.64,47.45Z"/><path class="cls-8" d="M104,118.82c-3.35.43-6.56,1-9.63,1.54-7.41,1.4-14,3.08-19.69,4.37-9.4,2.14-16.35,3.21-20.49.18-1.48-1.09-2.31-4.27-2-10.54l0,.21c-.88,6-2.67,18.37-2.55,23.58.12,5,1.11,6.94,6.59,8.62l1,.3c15.22,4.21,37.06,5.8,55.19,6.19,15.67.33,28.57-.24,32-.81,7.35-1.22,6.46-6.28,5.43-9.87-1.12-3.87-2.07-6.93,3.74-8.37,7.35-1.82,20.46-7.25,21.23-12.43a4.11,4.11,0,0,0-.09-1.76C171.84,109.83,127.5,115.79,104,118.82Z"/><path class="cls-9" d="M39.83,232.51H12.75l-7,15.63H0l23.34-51.43h6.19l23.34,51.43H46.68ZM26.36,202,14.91,227.61H37.67Z"/><path class="cls-9" d="M55.32,196.27h5.33v32.64l22.83-18.23h7.93L73,224.87l19.74,23.27H85.72L69.08,228.33l-8.43,6.41v13.4H55.32Z"/><path class="cls-9" d="M130.38,236.18c-2.16,6.63-7.78,13.11-20.17,13.11-15.35,0-20.39-10.73-20.39-19.88,0-10.44,6.41-19.88,20.39-19.88,9.65,0,21.1,4.18,21.1,21.18H95.15c0,7.78,5.55,14.12,15.06,14.12,8.93,0,13-3,14.84-8.65Zm-4.4-9.51c-1.51-9.22-8.28-12.67-15.41-12.67-6.85,0-14.19,3.53-15.42,12.67Z"/><path class="cls-9" d="M136.57,210.68h5.33v8.57h.15c1.94-4.46,5.47-9.72,14.33-9.72a15.32,15.32,0,0,1,3.17.29v5.47a28,28,0,0,0-4.9-.43c-5.76,0-12.75,3.53-12.75,14.19v19.09h-5.33Z"/><path class="cls-9" d="M162.65,196.71h29.24c10.09,0,14.34,5.69,14.34,13a10.83,10.83,0,0,1-8.86,11v.15c6.77,1,10.87,6,10.87,12.6,0,10.74-9.07,14.7-17,14.7H162.65ZM168,219h21.1c7.21,0,11.82-2.31,11.82-9.15,0-6.27-4.18-8.28-10-8.28H168Zm0,24.2h22.4c6.91,0,12.1-2.74,12.1-9.8,0-7.41-4.61-9.5-10.8-9.5H168Z"/><path class="cls-9" d="M212.78,196.71h27.73c7.93,0,15.49,4,15.49,14.84,0,9.72-6.41,15-17.86,15h-20v21.61h-5.33Zm5.33,24.92h20.6c8.93,0,11.53-4.1,11.53-10.08,0-7.71-4.32-9.94-10.45-9.94H218.11Z"/></svg>